<svg width="120" height="40" viewBox="0 0 120 40" fill="none" xmlns="http://www.w3.org/2000/svg">
    <g clip-path="url(#clip0_936_8575)">
        <path fill-rule="evenodd" clip-rule="evenodd" d="M7.6067 13.4184L7.60664 13.4184C7.45037 13.5914 7.28879 13.7703 7.11664 13.9554V13.9494V-0.0078125C5.38407 0.905206 3.59114 0.892466 1.80557 0.879778H1.80557C1.20401 0.875503 0.60329 0.871235 0.00599296 0.902374V2.05668H3.4909V2.71069C3.4909 4.53513 3.49127 6.35976 3.49165 8.18448V8.18477V8.18505V8.18533V8.18562V8.18572V8.18583V8.18593V8.18604C3.49277 13.6615 3.4939 19.1378 3.48491 24.6124C3.48491 25.1866 3.4499 25.7608 3.41489 26.335L3.41488 26.335C3.39017 26.7403 3.36546 27.1456 3.35306 27.5509C3.34107 27.9096 3.20324 28.0211 2.85564 28C2.52419 27.9811 2.18983 27.9856 1.85559 27.9901C1.7094 27.992 1.56323 27.994 1.41733 27.994H0V29.1543H6.73309C6.83197 28.2893 6.93086 27.4364 7.03573 26.5323C7.06935 26.583 7.10075 26.6296 7.13046 26.6737L7.13062 26.674L7.13066 26.674L7.13067 26.674L7.13075 26.6742L7.13082 26.6743C7.18572 26.7558 7.23484 26.8287 7.28145 26.903C7.91071 27.9217 8.78568 28.645 9.89438 29.076C13.652 30.5437 18.1167 28.865 20.1333 25.2393C21.32 23.1055 21.7035 20.8029 21.5327 18.3978C21.4039 16.5775 20.9184 14.8596 19.8367 13.3466C17.2597 9.73299 11.4675 9.61244 8.52798 12.4425C8.21379 12.7464 7.92098 13.0705 7.60672 13.4183L7.6067 13.4184ZM7.11113 19.9787V19.9786V19.9785V19.9784V19.9783C7.11389 19.6615 7.11664 19.3446 7.11664 19.0277L7.11065 19.0338C7.10998 18.7911 7.10873 18.5484 7.10747 18.3057L7.10747 18.3053L7.10747 18.305L7.10746 18.3046L7.10746 18.3042V18.3042V18.3042V18.3042V18.3042C7.10306 17.4535 7.09866 16.6032 7.11964 15.7547C7.12563 15.5015 7.21852 15.2122 7.36535 15.0073C8.76171 13.0332 11.1229 12.129 13.4302 12.6595C15.3959 13.1115 16.5286 14.4648 17.1279 16.2851C18.0148 18.9735 18.0358 21.7161 17.3107 24.4497C16.99 25.6552 16.3907 26.7131 15.345 27.4455C12.3515 29.5461 8.18039 27.9126 7.37134 24.311C7.21552 23.6118 7.1526 22.8825 7.12563 22.1622C7.09848 21.4354 7.10481 20.7073 7.11113 19.9787ZM83.2701 12.5526H88.6098L88.6128 12.5466C88.5283 12.8513 88.4437 13.1516 88.36 13.4489L88.3597 13.4499C88.1587 14.1638 87.9625 14.8606 87.7828 15.5604C87.2117 17.7745 86.6438 19.9886 86.076 22.2024L86.0757 22.2033L86.0747 22.2072L86.0737 22.2111L86.0717 22.2191L86.0702 22.225C85.2872 25.2774 84.5044 28.3293 83.7136 31.3802C83.2641 33.1072 82.7547 34.819 81.8348 36.3681C81.1396 37.5405 80.2466 38.4718 78.8563 38.7612C77.9543 38.948 77.0644 38.945 76.2313 38.4658C76.3651 38.425 76.4988 38.4148 76.6311 38.4047L76.6312 38.4047L76.6313 38.4047C76.6649 38.4021 76.6984 38.3995 76.7318 38.3965C77.6786 38.3121 78.3529 37.7756 78.5566 36.9498C78.8323 35.8347 78.3109 34.7376 77.3311 34.3639C76.1864 33.9269 74.868 34.388 74.3406 35.4097C73.5075 37.0342 74.3076 39.0324 76.0695 39.6653C77.7146 40.259 79.3207 40.0149 80.8669 39.3067C82.8326 38.4055 84.19 36.8353 85.3107 35.039C86.8599 32.5496 87.8577 29.819 88.6158 27.0041C89.6685 23.0957 90.6746 19.1724 91.6804 15.2503L91.6806 15.2495C91.8715 14.5052 92.0623 13.7609 92.2535 13.0167C92.3464 12.649 92.4902 12.5375 92.8618 12.5405C94.3876 12.5568 95.9117 12.5552 97.4367 12.5536C97.8943 12.5531 98.352 12.5526 98.8098 12.5526C98.9256 12.5526 99.0397 12.5613 99.1468 12.5694L99.2015 12.5735L99.2473 12.5767V28.0137H96.065V29.156H106.109V27.9926H102.912V10.5906C102.656 10.6608 102.407 10.7446 102.161 10.8272C101.637 11.0032 101.13 11.1738 100.614 11.1964C98.7395 11.2773 96.8621 11.2995 94.9838 11.3217C94.2736 11.3301 93.5632 11.3385 92.8528 11.3501C92.835 11.3501 92.8172 11.3382 92.7907 11.3206C92.7771 11.3116 92.7612 11.301 92.742 11.2898C92.7501 11.2517 92.7576 11.2125 92.7653 11.1728L92.7655 11.1719C92.7833 11.0797 92.8017 10.9844 92.8288 10.892C92.9606 10.4569 93.0872 10.0198 93.2138 9.5826L93.2142 9.58114L93.2143 9.58084C93.5164 8.53745 93.8186 7.49359 94.1922 6.47666C94.5548 5.49112 95.0253 4.52066 95.6036 3.64664C96.7033 1.98901 98.3394 1.45556 100.254 1.77804C100.539 1.82576 100.812 1.942 101.085 2.05799C101.208 2.11052 101.331 2.16299 101.456 2.20903C101.186 2.31753 100.964 2.31753 100.743 2.31753C99.7148 2.32657 98.9057 3.04387 98.7739 4.06557C98.648 5.05411 99.1574 5.98238 100.026 6.33802C101.03 6.7479 102.184 6.44049 102.831 5.58757C103.859 4.23133 103.376 2.07642 101.842 1.19335C100.512 0.427833 99.0765 0.451944 97.6472 0.7684C95.3789 1.27171 93.7038 2.67919 92.3254 4.48449C90.8452 6.42241 89.8773 8.62253 89.1222 10.9221C89.0053 11.2808 88.8375 11.3802 88.481 11.3772C87.3428 11.3617 86.2062 11.3641 85.0689 11.3664C84.6552 11.3673 84.2414 11.3682 83.8274 11.3682H83.2701V12.5526ZM61.2309 28.0108H64.4161V29.1591H54.7105V28.0138H57.5901C57.5947 27.9369 57.6006 27.8666 57.6061 27.8005L57.6061 27.8003C57.6151 27.6928 57.6231 27.5966 57.6231 27.5014C57.6231 26.2712 57.6238 25.0407 57.6244 23.81V23.8097V23.8093L57.6244 23.7879C57.6258 21.3115 57.6271 18.8347 57.6231 16.3592C57.6231 15.0692 57.3295 13.8788 56.1638 13.1283C55.0551 12.417 53.8296 12.4381 52.595 12.7214C51.2466 13.0289 50.1199 13.7462 49.173 14.7407C49.0262 14.8944 48.9303 15.1597 48.9303 15.3736C48.9228 17.3991 48.9213 19.4254 48.9198 21.4516C48.9183 23.4775 48.9168 25.5034 48.9093 27.5286C48.9093 27.9264 49.0412 28.0168 49.4068 28.0078C49.9605 27.9909 50.5156 27.9946 51.0824 27.9984H51.0825H51.0828H51.0831H51.0834C51.3291 28.0001 51.577 28.0017 51.8279 28.0017V29.1621H42.0234V28.0017H45.2686V12.5707H42.0354V11.3923C42.5903 11.3638 43.1495 11.3647 43.71 11.3657H43.7101C45.4562 11.3688 47.2165 11.3719 48.9064 10.4821V13.9571L49.0777 13.7654L49.0778 13.7653L49.0779 13.7652C49.2836 13.535 49.4392 13.3608 49.5985 13.1886C51.5223 11.1271 53.8655 10.1868 56.6762 10.5605C59.3401 10.9161 61.132 12.8872 61.1919 15.6539C61.2396 17.8904 61.2356 20.1283 61.2317 22.3657V22.3665V22.3667V22.3668V22.3669C61.2299 23.3613 61.2281 24.3556 61.2309 25.3495V28.0108ZM69.128 18.6797H81.7581C81.7392 18.5286 81.7236 18.3875 81.7088 18.2531C81.6812 18.004 81.6562 17.7776 81.6173 17.5525C81.2577 15.4639 80.4397 13.6104 78.7886 12.227C75.1119 9.14381 69.3677 10.2318 66.8626 14.4663C65.3824 16.9678 65.0048 19.6682 65.5172 22.5043C66.2693 26.6574 69.4306 29.409 73.6197 29.5688C76.3285 29.6712 78.6688 28.8846 80.3887 26.6664C81.3057 25.482 81.845 24.1257 82.0997 22.6459C81.4924 22.5696 81.0909 22.7926 80.8951 23.315C80.7993 23.5712 80.7004 23.8274 80.5805 24.0715C79.5527 26.1993 77.8537 27.2843 75.5075 27.3174C73.1283 27.3506 71.3094 26.3801 70.1827 24.2192C69.4786 22.8689 69.1999 21.4102 69.128 19.9033C69.1181 19.6451 69.1212 19.3857 69.1245 19.1137L69.1245 19.1125C69.1262 18.9721 69.128 18.8283 69.128 18.6797ZM77.5855 17.3237L77.599 17.4621H77.596H69.131C69.136 17.4174 69.1408 17.3731 69.1455 17.3293C69.1501 17.2853 69.1547 17.2416 69.1592 17.1984L69.1592 17.1978C69.1823 16.9767 69.2044 16.765 69.2388 16.5549C69.4126 15.4669 69.7303 14.4271 70.3326 13.4928C71.4622 11.7448 73.6856 11.1028 75.3606 12.1155C75.8461 12.4078 76.2806 12.881 76.5802 13.3693C77.3169 14.5624 77.45 15.9307 77.5855 17.3237ZM40.7038 18.7009H28.0107C28.0586 21.2566 28.3313 23.6677 30.0933 25.6388C32.2178 28.0167 37.6953 28.3031 39.5711 23.942C39.661 23.7371 39.7419 23.5261 39.8198 23.3151C40.0136 22.7887 40.4171 22.5687 41.0304 22.6551C40.7817 24.0505 40.2873 25.3374 39.4543 26.4797C37.7283 28.8486 35.3131 29.6864 32.4934 29.5689C28.1575 29.385 24.8884 26.335 24.346 21.977C24.0044 19.2253 24.4239 16.6304 25.9222 14.2584C28.3103 10.476 33.3294 9.30968 37.0271 11.7178C38.9778 12.9896 39.9966 14.8974 40.4581 17.1367C40.527 17.4728 40.5755 17.8133 40.6291 18.1889L40.6291 18.1889L40.6291 18.189C40.6524 18.3522 40.6766 18.522 40.7038 18.7009ZM36.6046 17.4592C36.5368 17.1219 36.4762 16.7916 36.4168 16.4673L36.4168 16.4672C36.2898 15.7745 36.1679 15.1091 35.9903 14.4604C35.7266 13.499 35.2412 12.646 34.3393 12.1216C32.6522 11.1421 30.4648 11.7117 29.3172 13.4176C28.6879 14.3549 28.3523 15.4037 28.1785 16.5098C28.144 16.7308 28.1189 16.9549 28.093 17.1855C28.0828 17.2756 28.0726 17.3668 28.0616 17.4592H36.6046ZM113.135 5.97021H112.008V5.97323C112.001 6.11927 111.995 6.26038 111.99 6.39789C111.978 6.70307 111.967 6.99058 111.936 7.27522C111.762 8.85147 111.169 10.1866 109.641 10.8557C109.054 11.1119 108.388 11.2324 107.744 11.3078C107.288 11.3623 106.823 11.3497 106.352 11.337C106.146 11.3314 105.939 11.3259 105.73 11.3259V12.5736H109.512V13.1583C109.512 14.3475 109.512 15.5371 109.511 16.7269C109.511 19.1072 109.51 21.4884 109.512 23.8696C109.512 24.3668 109.515 24.8671 109.554 25.3644C109.719 27.4922 110.875 28.969 112.922 29.391C113.866 29.5869 114.906 29.5869 115.862 29.4241C118.37 28.9992 119.796 26.7629 120 24.5115C119.215 24.3337 119.167 24.3608 118.951 25.0721C118.445 26.7297 117.276 27.5284 115.505 27.4259C114.19 27.3476 113.374 26.5971 113.192 25.2831C113.153 25.0118 113.132 24.7375 113.132 24.4663V13.1281V12.5525H119.415V11.368H118.816C118.38 11.368 117.944 11.3675 117.508 11.3669C116.201 11.3652 114.895 11.3635 113.587 11.3771C113.231 11.3801 113.12 11.2746 113.126 10.913C113.141 9.93386 113.139 8.95477 113.136 7.97569C113.136 7.61963 113.135 7.26358 113.135 6.90753V5.97021Z" fill="black"></path>
    </g>
    <defs>
        <clipPath id="clip0_936_8575">
            <rect width="120" height="40" fill="white"></rect>
        </clipPath>
    </defs>
</svg>
